Coordinates
version=1
nRows=5
nColumns=40
inDegrees=yes

Units are S.I. units (second, meters, Newtons, ...)
Angles are in degrees.

endheader
time	pelvis_tilt	pelvis_list	pelvis_rotation	pelvis_tx	pelvis_ty	pelvis_tz	hip_flexion_r	hip_adduction_r	hip_rotation_r	knee_angle_r	knee_angle_r_beta	ankle_angle_r	subtalar_angle_r	mtp_angle_r	hip_flexion_l	hip_adduction_l	hip_rotation_l	knee_angle_l	knee_angle_l_beta	ankle_angle_l	subtalar_angle_l	mtp_angle_l	lumbar_extension	lumbar_bending	lumbar_rotation	arm_flex_r	arm_add_r	arm_rot_r	elbow_flex_r	pro_sup_r	wrist_flex_r	wrist_dev_r	arm_flex_l	arm_add_l	arm_rot_l	elbow_flex_l	pro_sup_l	wrist_flex_l	wrist_dev_l
     49.69000000	     -8.39771915	     -5.82190086	     -0.45459424	      0.92651869	      0.91682707	      0.45954502	      1.76767548	      0.17472883	    -14.62923957	     24.64321021	     24.64321021	     15.54739149	      6.44392793	     -9.02604039	     32.20287281	     -8.41494141	     -3.50620108	     25.73818702	     25.73818702	      5.68979132	    -12.97832446	      7.27145917	     -9.11721286	      6.03229546	      5.49280465	     32.17535145	    -15.75202960	      0.96732540	    107.05775824	     44.32038274	      0.00000000	      0.00000000	    -12.26580238	     -8.63971451	      6.80795322	     27.00248917	     44.65377584	      0.00000000	      0.00000000
     49.70085714	     -8.45330329	     -5.66332629	     -0.60850917	      0.92680531	      0.91850510	      0.45718349	      3.11129332	     -0.63997680	    -14.22883260	     27.78509748	     27.78509748	     14.24743085	      5.14465180	     -9.99995912	     31.37845372	     -8.16492578	     -3.83255573	     25.27800111	     25.27800111	      6.11386356	    -12.83867809	      7.09276832	     -9.14503453	      5.86548136	      5.48653024	     29.96151734	    -15.80756855	      0.89851310	    105.89872580	     44.35558616	      0.00000000	      0.00000000	    -10.92859129	     -8.65382529	      6.57340142	     27.75602733	     44.72268698	      0.00000000	      0.00000000
     49.71171429	     -8.61571141	     -5.53662235	     -0.78959363	      0.92683119	      0.91983213	      0.45501978	      4.84045119	     -1.37623232	    -13.62594383	     31.29079097	     31.29079097	     12.63731933	      3.26951233	    -11.07801074	     30.65748181	     -7.95550197	     -4.17153932	     24.74337110	     24.74337110	      6.43796995	    -12.70570747	      6.85561035	     -9.06461516	      5.69238859	      5.57657754	     27.81929574	    -16.01803856	      0.55423415	    104.40896831	     44.41103258	      0.00000000	      0.00000000	     -9.54954088	     -8.66615674	      6.23619790	     28.70529691	     44.80730515	      0.00000000	      0.00000000
     49.72257143	     -8.68553915	     -5.40533792	     -0.92239867	      0.92667340	      0.92108269	      0.45292421	      6.60804293	     -2.07222030	    -12.96725226	     34.91243878	     34.91243878	     10.82166301	      1.22645537	    -11.85667054	     29.90699117	     -7.73302351	     -4.47266872	     24.29845282	     24.29845282	      6.76558129	    -12.53592961	      6.54790580	     -9.12599325	      5.58850486	      5.62170259	     25.66253238	    -16.04097591	      0.29961776	    102.74393029	     44.46777921	      0.00000000	      0.00000000	     -8.09215388	     -8.71602471	      5.88453395	     29.74444870	     44.89128058	      0.00000000	      0.00000000
     49.73342857	     -8.78852827	     -5.29140910	     -1.09111771	      0.92632076	      0.92203223	      0.45108979	      8.60846576	     -2.64868005	    -12.14282789	     38.72079883	     38.72079883	      8.83078418	     -1.25300587	    -12.36555971	     29.22114172	     -7.55532434	     -4.78633663	     23.88394402	     23.88394402	      7.04985063	    -12.39053543	      6.16882442	     -9.14928953	      5.43220843	      5.70570622	     23.58667986	    -16.09488475	     -0.08487151	    100.70926914	     44.54066141	      0.00000000	      0.00000000	     -6.62615376	     -8.80040337	      5.46238561	     30.95255671	     44.98339615	      0.00000000	      0.00000000
